<?xml version="1.0" encoding="UTF-8" standalone="no"?><!DOCTYPE svg PUBLIC "-//W3C//DTD SVG 1.1//EN" "http://www.w3.org/Graphics/SVG/1.1/DTD/svg11.dtd"><svg width="100%" height="100%" viewBox="0 0 1300 1300" version="1.1" xmlns="http://www.w3.org/2000/svg" xmlns:xlink="http://www.w3.org/1999/xlink" xml:space="preserve" xmlns:serif="http://www.serif.com/" style="fill-rule:evenodd;clip-rule:evenodd;stroke-linecap:round;stroke-linejoin:round;stroke-miterlimit:1.5;"><path d="M769.015,503.682l-19.474,27.259" style="fill:none;stroke:#000;stroke-width:2px;"/><path d="M726.872,566.251l-11.86,17.278l-11.86,17.278" style="fill:#bbff79;stroke:#000;stroke-width:2px;"/><path d="M836.053,641.418c0,0 0.232,57.416 -1.198,66.711c-1.43,9.294 -2.603,69.021 -7.131,84.512c-4.529,15.49 -15.792,69.093 -16.364,81.295c-0.572,12.202 3.598,48.242 8.722,61.35c5.125,13.107 37.14,104.101 49.496,120.378c1.728,2.276 14.923,-1.123 18.354,8.219c3.432,9.342 7.633,16.333 9.741,28.629c1.43,8.341 32.829,62.887 36.999,72.27c0.915,2.059 1.001,7.494 1.001,7.494c0,0 24.109,9.956 23.031,42.402" style="fill:none;stroke:#000;stroke-width:2px;"/><path d="M732.601,1245.62c0,0 -8.394,-60.198 -16.618,-77.91c-6.196,-13.345 -23.792,-13.704 -18.589,-37.654c1.369,-6.297 16.921,-10.605 19.543,-12.988c2.621,-2.383 -31.443,-166.379 -40.753,-176.433c-9.309,-10.054 -31.547,-43.962 -21.701,-78.191c9.733,-33.838 33.323,-132.044 36.302,-142.172c2.979,-10.129 2.965,-38.176 0.399,-58.256c-0.124,-0.964 -8.721,-12.217 -16.397,-24.976c-0.245,-0.407 -21.541,10.58 -33.364,-13.345c-2.304,-4.662 2.478,-10.677 6.101,-12.393c3.622,-1.716 12.392,-2.86 16.777,-5.91c4,-2.782 11.821,-8.77 23.07,-8.389c11.248,0.381 8.579,1.335 12.011,3.622c3.432,2.288 28.407,24.214 28.407,24.214c0,0 8.016,6.125 10.868,14.68c3.241,9.723 8.198,42.516 8.007,42.706c-0.191,0.191 10.396,-2.05 19.637,-13.345c1.716,-2.098 1.45,-35.083 14.752,-47.196c0.194,-0.177 -21.28,-29.291 -28.106,-42.446c-2.244,-4.326 -28.169,-15.231 -34.803,-21.059c-0.673,-0.591 -12.822,-6.578 -8.627,-19.924c4.194,-13.345 14.871,-10.676 14.871,-10.676c0,0 34.72,8.722 42.584,8.722c7.865,0 16.293,8.711 20.961,12.813c1.888,1.659 -12.24,-35.183 -12.24,-37.166c0,-1.983 -18.532,-29.328 -16.98,-58.63c0.066,-1.231 13.88,14.642 22.574,20.133c4.128,2.608 37.289,85.664 44.155,115.492c0.424,1.843 12.773,8.643 12.019,22.481c3.356,8.693 -5.849,34.851 -7.07,39.244c-1.22,4.392 -14.088,40.507 -15.041,41.222" style="fill:none;stroke:#000;stroke-width:2px;"/><path d="M212.849,1285.89c0,0 -41.578,-98.41 -40.014,-114.049c1.564,-15.64 -37.131,-27.726 -36.657,-123.353c0.004,-0.875 -23.929,-78.198 -25.024,-103.613c-0.131,-3.051 -5.405,-46.195 4.604,-78.726c10.01,-32.53 8.602,-64.482 8.602,-64.482c0,0 0.757,-20.978 27.344,-32.551c26.587,-11.573 243.728,-104.16 243.728,-104.16c0,0 -18.832,-45.873 -20.551,-53.24c-4.379,-18.768 -4.692,-35.033 -10.635,-49.734c-2.965,-7.336 -20.469,-71.102 -21.22,-94.874c-0.379,-12.008 6.041,-53.256 26.044,-84.488c0.058,-0.092 0.569,-5.809 0.638,-7.267c0.057,-1.212 0.007,-3.747 0.073,-3.485c0.066,0.263 -4.006,-39.017 6.093,-59.315c0.136,-0.273 3.003,-38.369 4.337,-58.388c0.545,-8.161 8.135,-99.605 59.572,-146.48c0.578,-0.526 38.369,-61.894 125.147,-63.117c1.18,-0.017 39.853,-61.516 184.984,-9.69c53.762,19.198 154.581,111.661 190.734,213.878c18.478,52.243 28.745,131.217 27.077,150.569c-1.668,19.351 -5.018,56.408 -2.412,101.371c2.607,44.964 -9.916,117.21 5.865,168.903c0.61,1.998 135.752,29.444 135.752,29.444c0,0 26.054,-4.462 36.944,38.245c10.89,42.706 26.848,93.388 30.184,128.42c3.337,35.033 5.478,122.156 -4.679,190.595c-3.299,22.223 8.631,36.898 13.219,47.742c4.588,10.843 12.43,33.847 4.06,45.463c-8.371,11.616 -17.062,18.022 -25.39,24.001" style="fill:none;stroke:#000;stroke-width:2px;"/><path d="M790.531,552.33c0,0 28.598,29.552 29.551,30.505" style="fill:none;stroke:#000;stroke-width:2px;"/><path d="M666.317,808.035l-57.538,-54.554c0,0 -18.86,-21.825 -5.591,-43.178c2.795,-4.497 50.256,-71.522 50.256,-71.522" style="fill:none;stroke:#000;stroke-width:2px;"/><path d="M728.902,525.819l31.743,-42.116" style="fill:none;stroke:#000;stroke-width:2px;"/><path d="M681.058,595.006l28.132,-40.944" style="fill:none;stroke:#000;stroke-width:2px;"/><path d="M674.885,641.923l-49.413,75.351c0,0 -11.132,12.364 -1.136,30.136c2.471,4.393 45.543,45.024 45.543,45.024" style="fill:none;stroke:#000;stroke-width:2px;"/><path d="M379.055,304.534c0,0 18.293,-44.433 22.39,-63.423c4.096,-18.991 23.952,-52.793 74.474,-69.634c5.585,-1.862 43.195,-5.213 20.48,29.79c-0.907,1.397 68.027,40.548 68.027,40.548c0,0 0.931,37.237 65.631,86.11c64.699,48.874 113.559,115.926 129.221,122.256" style="fill:none;stroke:#000;stroke-width:2px;"/><path d="M695.124,170.423c0,0 64.275,111.149 73.891,209.333c9.616,98.184 11.781,81.721 13.866,89.466" style="fill:none;stroke:#000;stroke-width:2px;"/><path d="M969.557,674.539c0,0 60.245,214.943 105.708,299.171c23.602,43.728 -7.642,145.581 -16.951,207.255" style="fill:none;stroke:#000;stroke-width:2px;"/><path d="M396.851,666.955c0,0 8.384,16.634 9.605,35.425c0.563,8.669 6.415,31.061 22.662,44.132c16.851,13.558 32.029,17.922 69.969,17.922c37.94,0 90.696,-19.133 98.475,-24.167" style="fill:none;stroke:#000;stroke-width:2px;"/><path d="M527.574,764.434c0,0 48.546,25.655 102.167,16.718" style="fill:none;stroke:#000;stroke-width:2px;"/><path d="M418.041,742.539c0,0 -16.635,234.292 -21.19,265.681c-0.826,5.696 55.409,39.85 55.409,39.85c0,0 -40.6,49.447 -55.409,63.716c-4.096,3.948 35.482,127.556 40.082,143.723" style="fill:none;stroke:#000;stroke-width:2px;"/><path d="M485.705,768.592c0,0 57.909,429.538 67.233,467.357" style="fill:none;stroke:#000;stroke-width:2px;"/></svg>