<?xml version="1.0" encoding="UTF-8" standalone="no"?><!DOCTYPE svg PUBLIC "-//W3C//DTD SVG 1.1//EN" "http://www.w3.org/Graphics/SVG/1.1/DTD/svg11.dtd"><svg width="100%" height="100%" viewBox="0 0 768 768" version="1.1" xmlns="http://www.w3.org/2000/svg" xmlns:xlink="http://www.w3.org/1999/xlink" xml:space="preserve" xmlns:serif="http://www.serif.com/" style="fill-rule:evenodd;clip-rule:evenodd;stroke-linecap:round;stroke-linejoin:round;stroke-miterlimit:1.5;"><path d="M32.162,768c0.411,-7.833 21.472,-103.009 45.278,-121.651c40.32,-31.575 172.776,-77.06 177.876,-82.907c8.54,-9.789 25.103,-44.684 36.296,-59.794c0.4,-0.541 -0.611,-26.787 -0.829,-32.328c-0.026,-0.655 -38.38,-41.203 -38.238,-70.767c0.004,-0.816 -5.401,-2.731 -11.813,-12.237c-4.779,-7.086 -16.535,-74.315 -16.535,-74.315c0,0 -1.55,-7.944 8.191,-9.752c0.63,-0.117 -4.153,-26.336 0.861,-42.274c5.144,-16.35 -3.581,-37.787 -3.581,-37.787c0,0 13.393,-23.855 22.656,-34.335c0.626,-0.708 -12.763,-50.521 79.465,-76.936c55.281,-15.833 117.938,10.549 141.677,60.066c0.178,0.371 9.177,-2.13 9.177,-2.13c0,0 31.022,37.154 27.547,120.158c-0.05,1.203 4.846,-8.079 19.044,-5.473c9.664,1.774 15.716,56.614 3.964,77.041c-11.753,20.426 -22.875,27.324 -40.95,24.033c-1.064,-0.194 -16.833,59.51 -12.356,104.953c0.282,2.853 27.828,49.698 32.532,56.732c4.705,7.034 188.025,102.067 198.518,112.997c10.493,10.931 15.74,7.87 25.359,34.978c9.619,27.107 28.421,48.531 31.699,53.34c3.278,4.809 -14.051,-30.263 -19.378,-27.592" style="fill:none;stroke:#000;stroke-width:0.75px;"/><path d="M509.174,286.684c-4.493,-3.667 -5.043,-4.493 -9.352,-4.584c-4.31,-0.092 -45.225,-3.722 -45.387,-3.668c-0.162,0.054 -58.566,-23.137 -91.452,7.785c-0.12,0.113 -17.664,-5.41 -33.587,1.809c-0.382,0.173 -34.331,-27.884 -88.056,3.377c-1.333,0.775 -9.334,7.945 -9.334,7.945l0.275,4.218l8.894,-2.017c0,0 5.685,2.751 6.785,12.195c1.1,9.444 13.562,40.908 41.096,41.58c27.534,0.671 44.752,-22.271 48.576,-49.92c0.039,-0.283 -3.357,-9.178 -3.357,-9.178c0,0 14.404,-10.282 23.321,0.282c0.292,0.346 -0.406,6.173 -0.406,6.173c0,0 3.783,34.148 32.58,43.461c28.796,9.312 43.248,-6.268 52.202,-20.058c8.955,-13.789 4.097,-26.271 8.279,-32.463c1.746,-2.585 3.863,-4.857 4.083,-4.93c0.221,-0.074 43.567,1.218 43.567,1.218c0,0 3.521,-3.814 8.142,-1.98c4.621,1.834 3.814,2.714 3.814,2.714" style="fill:none;stroke:#000;stroke-width:0.75px;"/></svg>