<?xml version="1.0" encoding="UTF-8" standalone="no"?><!DOCTYPE svg PUBLIC "-//W3C//DTD SVG 1.1//EN" "http://www.w3.org/Graphics/SVG/1.1/DTD/svg11.dtd"><svg width="100%" height="100%" viewBox="0 0 813 510" version="1.1" xmlns="http://www.w3.org/2000/svg" xmlns:xlink="http://www.w3.org/1999/xlink" xml:space="preserve" xmlns:serif="http://www.serif.com/" style="fill-rule:evenodd;clip-rule:evenodd;stroke-miterlimit:10;"><rect id="XMLID_6_" x="0.177" y="0" width="805.854" height="506.024" style="fill:#fff;fill-opacity:0;stroke:#000;stroke-width:2px;"/><path id="XMLID_45_" d="M0.177,504.058c0,0 -15.729,-283.364 249.694,-440.651c265.423,-157.288 570.168,8.601 556.16,245.762c-11.06,186.287 -200.296,220.203 -251.907,178.177c0,0 -66.847,-42.271 -59.965,-112.067c6.881,-69.797 82.576,-69.797 104.694,-50.873c18.187,15.483 13.517,50.627 -4.424,55.297c-21.627,5.652 -34.652,-10.077 -22.364,-21.382c13.026,-11.796 23.102,6.636 10.814,12.288" style="fill-opacity:0;fill-rule:nonzero;stroke:#000;stroke-width:2px;"/><path id="XMLID_40_" d="M493.667,0l0,506.024" style="fill:#fff;fill-rule:nonzero;stroke:#000;stroke-width:2px;"/><path id="XMLID_39_" d="M805.785,315.804l-312.118,0" style="fill:#fff;fill-rule:nonzero;stroke:#000;stroke-width:2px;"/><path id="XMLID_38_" d="M610.65,506.024l0,-190.22" style="fill:#fff;fill-rule:nonzero;stroke:#000;stroke-width:2px;"/><path id="XMLID_37_" d="M498.091,383.635l112.559,0" style="fill:#fff;fill-rule:nonzero;stroke:#000;stroke-width:2px;"/><path id="XMLID_36_" d="M567.396,315.804l0,67.831" style="fill:#fff;fill-rule:nonzero;stroke:#000;stroke-width:2px;"/><path id="XMLID_35_" d="M610.65,356.109l-43.254,0" style="fill:#fff;fill-rule:nonzero;stroke:#000;stroke-width:2px;"/><path id="XMLID_34_" d="M0.177,0l806.099,506.024" style="fill:#fff;fill-rule:nonzero;stroke:#000;stroke-width:2px;"/><path id="XMLID_33_" d="M806.276,0l-806.099,506.024" style="fill:#fff;fill-rule:nonzero;stroke:#000;stroke-width:2px;"/><path id="XMLID_47_" d="M0.177,193.169l806.099,0" style="fill:#fff;fill-rule:nonzero;stroke:#000;stroke-width:2px;"/><path id="XMLID_46_" d="M0.177,312.855l806.099,0" style="fill:#fff;fill-rule:nonzero;stroke:#000;stroke-width:2px;"/><path id="XMLID_44_" d="M308.117,0l0,506.024" style="fill:#fff;fill-rule:nonzero;stroke:#000;stroke-width:2px;"/><path id="XMLID_43_" d="M0.177,0l806.099,506.024" style="fill:#fff;fill-rule:nonzero;stroke:#000;stroke-width:2px;"/><path id="XMLID_42_" d="M0.177,506.024l224.872,-364.957" style="fill:#fff;fill-rule:nonzero;stroke:#000;stroke-width:2px;"/><path id="XMLID_41_" d="M806.276,0l-224.38,365.203" style="fill:#fff;fill-rule:nonzero;stroke:#000;stroke-width:2px;"/></svg>