<?xml version="1.0" encoding="UTF-8" standalone="no"?><!DOCTYPE svg PUBLIC "-//W3C//DTD SVG 1.1//EN" "http://www.w3.org/Graphics/SVG/1.1/DTD/svg11.dtd"><svg width="100%" height="100%" viewBox="0 0 768 600" version="1.1" xmlns="http://www.w3.org/2000/svg" xmlns:xlink="http://www.w3.org/1999/xlink" xml:space="preserve" xmlns:serif="http://www.serif.com/" style="fill-rule:evenodd;clip-rule:evenodd;stroke-linecap:round;stroke-linejoin:round;stroke-miterlimit:1.5;"><path d="M54.176,600c0.368,-7.018 19.238,-92.292 40.567,-108.995c36.126,-28.289 154.8,-69.042 159.37,-74.28c7.652,-8.772 22.492,-40.036 32.52,-53.574c0.359,-0.484 -0.548,-24 -0.743,-28.965c-0.023,-0.586 -34.386,-36.915 -34.259,-63.403c0.003,-0.732 -4.84,-2.447 -10.584,-10.965c-4.282,-6.349 -14.816,-66.583 -14.816,-66.583c0,0 -1.388,-7.118 7.339,-8.737c0.565,-0.105 -3.72,-23.596 0.772,-37.877c4.609,-14.648 -3.209,-33.855 -3.209,-33.855c0,0 12,-21.373 20.299,-30.762c0.561,-0.635 -11.435,-45.265 71.198,-68.932c49.529,-14.186 105.668,9.451 126.937,53.817c0.159,0.332 8.222,-1.909 8.222,-1.909c0,0 27.794,33.288 24.681,107.657c-0.045,1.078 4.342,-7.239 17.062,-4.904c8.66,1.59 14.082,50.724 3.552,69.026c-10.53,18.301 -20.495,24.481 -36.689,21.532c-0.954,-0.173 -15.082,53.319 -11.07,94.034c0.251,2.556 24.932,44.527 29.147,50.83c4.215,6.302 168.463,91.448 177.864,101.241c9.402,9.793 14.102,7.051 22.72,31.338c8.618,24.287 25.464,43.482 28.402,47.791c2.937,4.309 -12.59,-27.114 -17.362,-24.721" style="fill:none;stroke:#000;stroke-width:1px;"/><path d="M481.56,168.76c-4.026,-3.286 -4.518,-4.025 -8.38,-4.107c-3.861,-0.082 -40.519,-3.335 -40.664,-3.286c-0.146,0.048 -52.473,-20.73 -81.937,6.975c-0.108,0.101 -15.827,-4.847 -30.093,1.62c-0.343,0.155 -30.759,-24.983 -78.895,3.026c-1.194,0.694 -8.363,7.119 -8.363,7.119l0.246,3.779l7.969,-1.808c0,0 5.093,2.465 6.079,10.927c0.986,8.461 12.151,36.652 36.821,37.253c24.669,0.602 40.096,-19.953 43.522,-44.726c0.035,-0.253 -3.008,-8.223 -3.008,-8.223c0,0 12.905,-9.212 20.895,0.253c0.262,0.31 -0.364,5.531 -0.364,5.531c0,0 3.39,30.595 29.19,38.939c25.801,8.343 38.749,-5.616 46.772,-17.971c8.022,-12.355 3.67,-23.538 7.417,-29.086c1.565,-2.316 3.462,-4.351 3.659,-4.417c0.197,-0.066 39.033,1.092 39.033,1.092c0,0 3.155,-3.418 7.295,-1.775c4.141,1.643 3.418,2.432 3.418,2.432" style="fill:url(#_Linear1);stroke:#000;stroke-width:1px;"/><defs><linearGradient id="_Linear1" x1="0" y1="0" x2="1" y2="0" gradientUnits="userSpaceOnUse" gradientTransform="matrix(248.992,0,0,76.3391,233.228,192.102)"><stop offset="0" style="stop-color:#ef04dd;stop-opacity:0.380392"/><stop offset="0.52" style="stop-color:#8cbaf6;stop-opacity:0.839216"/><stop offset="1" style="stop-color:#69fbff;stop-opacity:1"/></linearGradient></defs></svg>