<?xml version="1.0" encoding="UTF-8" standalone="no"?><!DOCTYPE svg PUBLIC "-//W3C//DTD SVG 1.1//EN" "http://www.w3.org/Graphics/SVG/1.1/DTD/svg11.dtd"><svg width="100%" height="100%" viewBox="0 0 768 768" version="1.1" xmlns="http://www.w3.org/2000/svg" xmlns:xlink="http://www.w3.org/1999/xlink" xml:space="preserve" xmlns:serif="http://www.serif.com/" style="fill-rule:evenodd;clip-rule:evenodd;stroke-linecap:round;stroke-linejoin:round;stroke-miterlimit:1.5;"><path d="M32.162,768c0.411,-7.833 21.472,-103.009 45.278,-121.651c40.32,-31.575 172.776,-77.06 177.876,-82.907c8.54,-9.789 25.103,-44.684 36.296,-59.794c0.4,-0.541 -0.611,-26.787 -0.829,-32.328c-0.026,-0.655 -38.38,-41.203 -38.238,-70.767c0.004,-0.816 -5.401,-2.731 -11.813,-12.237c-4.779,-7.086 -16.535,-74.315 -16.535,-74.315c0,0 -1.55,-7.944 8.191,-9.752c0.63,-0.117 -4.153,-26.336 0.861,-42.274c5.144,-16.35 -3.581,-37.787 -3.581,-37.787c0,0 13.393,-23.855 22.656,-34.335c0.626,-0.708 -12.763,-50.521 79.465,-76.936c55.281,-15.833 117.938,10.549 141.677,60.066c0.178,0.371 9.177,-2.13 9.177,-2.13c0,0 31.022,37.154 27.547,120.158c-0.05,1.203 4.846,-8.079 19.044,-5.473c9.664,1.774 15.716,56.614 3.964,77.041c-11.753,20.426 -22.875,27.324 -40.95,24.033c-1.064,-0.194 -16.833,59.51 -12.356,104.953c0.282,2.853 27.828,49.698 32.532,56.732c4.705,7.034 188.025,102.067 198.518,112.997c10.493,10.931 15.74,7.87 25.359,34.978c9.619,27.107 28.421,48.531 31.699,53.34" style="fill:none;stroke:#000;stroke-width:0.75px;"/><path d="M509.174,286.684c-4.493,-3.667 -5.043,-4.493 -9.352,-4.584c-4.31,-0.092 -45.225,-3.722 -45.387,-3.668c-0.162,0.054 -58.566,-23.137 -91.452,7.785c-0.12,0.113 -17.664,-5.41 -33.587,1.809c-0.382,0.173 -34.331,-27.884 -88.056,3.377c-1.333,0.775 -9.334,7.945 -9.334,7.945l0.275,4.218l8.894,-2.017c0,0 5.685,2.751 6.785,12.195c1.1,9.444 13.562,40.908 41.096,41.58c27.534,0.671 44.752,-22.271 48.576,-49.92c0.039,-0.283 -3.357,-9.178 -3.357,-9.178c0,0 14.404,-10.282 23.321,0.282c0.292,0.346 -0.406,6.173 -0.406,6.173c0,0 3.783,34.148 32.58,43.461c28.796,9.312 43.248,-6.268 52.202,-20.058c8.955,-13.789 4.097,-26.271 8.279,-32.463c1.746,-2.585 3.863,-4.857 4.083,-4.93c0.221,-0.074 43.567,1.218 43.567,1.218c0,0 3.521,-3.814 8.142,-1.98c4.621,1.834 3.814,2.714 3.814,2.714" style="fill:url(#_Linear1);stroke:#000;stroke-width:0.75px;"/><path d="M291.508,506.478c-0.139,1.43 -1.076,8.591 -1.076,8.591c0,0 -8.106,13.397 -5.629,26.569c2.477,13.171 10.15,67.619 17.021,76.689c6.872,9.07 36.376,42.167 45.9,53.596c2.748,3.298 18.377,-39.248 18.377,-39.248c0,0 13.298,-8.795 28.362,-7.97c10.235,0.56 21.861,-7.937 24.187,-12.094c9.842,-17.59 38.566,-67.124 52.409,-83.188c13.325,-15.463 9.538,-28.215 8.548,-33.619" style="fill:none;stroke:#000;stroke-width:0.75px;"/><path d="M254.889,565.464c0,0 -33.474,53.539 -35.664,61.937c-1.001,3.837 1.815,2.249 1.671,2.898c-0.144,0.648 17.71,-17.566 19.118,-25.13c0.82,-4.409 14.996,-16.819 32.014,-1.935c0.477,0.418 -1.407,14.073 4.046,19.877c0.12,0.129 15.041,25.251 24.802,29.464c2.421,1.045 1.048,10.437 2.829,13.345c3.037,4.956 23.896,17.845 32.163,21.187c4.18,1.69 11.895,-11.078 12.683,-12.942c0.314,-0.742 -1.767,3.001 -2.571,4.353c-3.372,5.666 -14.626,13.873 -18.594,22.486c-4.244,9.212 -18.085,50.725 -17.645,66.996" style="fill:none;stroke:#000;stroke-width:0.75px;"/><path d="M511.682,551.261c0,0 14.312,39.818 1.719,91.401c-0.227,0.929 -43.672,-38.773 -78.688,-39.544c-6.578,-0.145 -8.113,16.73 -27.296,19.702" style="fill:none;stroke:#000;stroke-width:0.75px;"/><defs><linearGradient id="_Linear1" x1="0" y1="0" x2="1" y2="0" gradientUnits="userSpaceOnUse" gradientTransform="matrix(277.906,0,0,85.2037,232.006,312.736)"><stop offset="0" style="stop-color:#ef04dd;stop-opacity:0.380392"/><stop offset="0.52" style="stop-color:#8cbaf6;stop-opacity:0.839216"/><stop offset="1" style="stop-color:#69fbff;stop-opacity:1"/></linearGradient></defs></svg>